<svg xmlns="http://www.w3.org/2000/svg" viewBox="0 0 42 42">
  <g fill="none" fill-rule="evenodd">
    <rect width="42" height="42" fill="none"/>
    <path fill="#66BBE4" d="M23.323,32.013 C25.293,30.377 26.803,28.106 27.602,25.477 C29.266,24.902 30.769,24.11 32.046,23.148 C31.259,27.618 27.768,31.155 23.323,32.013 L23.323,32.013 Z M10.413,23.139 C11.679,24.096 13.169,24.885 14.818,25.46 C15.582,28.065 17.043,30.325 18.958,31.977 C14.596,31.059 11.187,27.553 10.413,23.139 L10.413,23.139 Z M14.43,18.807 C14.295,19.611 14.224,20.441 14.224,21.289 C14.224,22.245 14.315,23.178 14.486,24.078 C12.836,23.459 11.361,22.652 10.259,21.742 C10.252,21.572 10.247,21.401 10.247,21.23 C10.247,19.741 10.544,18.322 11.081,17.027 C12.133,17.747 13.229,18.344 14.43,18.807 L14.43,18.807 Z M19.137,10.447 C17.008,12.215 15.417,14.725 14.679,17.628 C13.518,17.212 12.444,16.695 11.52,16.096 C13.049,13.208 15.829,11.086 19.137,10.447 L19.137,10.447 Z M30.941,16.096 C30.023,16.691 28.959,17.206 27.808,17.62 C27.104,14.754 25.568,12.264 23.502,10.483 C26.732,11.162 29.439,13.261 30.941,16.096 L30.941,16.096 Z M21.829,25.34 L21.829,19.93 C23.747,19.885 25.369,19.621 26.829,19.172 C26.927,19.822 26.979,20.49 26.979,21.171 C26.979,22.346 26.826,23.481 26.544,24.556 C25.018,25.003 23.401,25.283 21.829,25.34 L21.829,25.34 Z M21.829,31.47 L21.829,26.511 C23.318,26.468 24.754,26.265 26.104,25.924 C25.221,28.216 23.719,30.149 21.829,31.47 L21.829,31.47 Z M20.632,26.51 L20.632,31.587 C18.705,30.241 17.183,28.258 16.307,25.909 C17.672,26.258 19.124,26.466 20.632,26.51 L20.632,26.51 Z M20.632,10.99 L20.632,18.759 C19.024,18.706 17.403,18.445 15.887,18.014 C16.63,15.077 18.347,12.586 20.632,10.99 L20.632,10.99 Z M21.829,10.873 C24.142,12.489 25.874,15.023 26.601,18.008 C25.077,18.443 23.447,18.707 21.829,18.759 L21.829,10.873 Z M15.482,21.289 C15.482,20.582 15.537,19.889 15.642,19.216 C17.107,19.643 18.739,19.887 20.632,19.93 L20.632,25.34 C19.048,25.281 17.418,24.997 15.882,24.544 C15.621,23.508 15.482,22.416 15.482,21.289 L15.482,21.289 Z M32.213,21.23 C32.213,21.401 32.209,21.572 32.201,21.742 C31.093,22.657 29.609,23.468 27.95,24.088 C28.137,23.148 28.237,22.173 28.237,21.171 C28.237,20.343 28.169,19.531 28.04,18.744 C29.207,18.277 30.288,17.685 31.364,16.989 C31.911,18.294 32.213,19.726 32.213,21.23 L32.213,21.23 Z M32.415,16.278 L32.416,16.277 L32.41,16.266 C32.272,15.956 32.121,15.652 31.959,15.356 L31.958,15.354 L31.958,15.354 C29.879,11.567 25.854,9 21.23,9 C16.606,9 12.581,11.567 10.503,15.354 L10.503,15.353 L10.5,15.358 C10.339,15.653 10.189,15.955 10.052,16.263 L10.048,16.272 L10.048,16.272 C9.375,17.788 9,19.465 9,21.23 C9,27.984 14.476,33.46 21.23,33.46 C27.984,33.46 33.46,27.984 33.46,21.23 C33.46,19.467 33.086,17.792 32.415,16.278 L32.415,16.278 Z"/>
  </g>
</svg>
