<svg xmlns="http://www.w3.org/2000/svg" viewBox="0 0 42 42">
  <g fill="none" fill-rule="evenodd">
    <rect width="42" height="42" fill="none"/>
    <g stroke="#00AFB4" transform="translate(7 7)">
      <path d="M9.6038,8.6851 L18.8558,8.6851 C19.3588,8.6851 19.7668,9.0801 19.7668,9.5661 C19.7668,10.0531 19.3588,10.4481 18.8558,10.4481 L9.6038,10.4481 C9.1008,10.4481 8.6928,10.0531 8.6928,9.5661 C8.6928,9.0801 9.1008,8.6851 9.6038,8.6851 Z M3.5418,15.4521 L24.9178,15.4521 L24.9178,3.6811 L3.5418,3.6811 L3.5418,15.4521 Z"/>
      <path d="M27.9595,15.0259 C27.9595,17.0179 26.2905,18.6329 24.2305,18.6329 L4.2285,18.6329 C2.1695,18.6329 0.5005,17.0179 0.5005,15.0259 L0.5005,4.1069 C0.5005,2.1149 2.1695,0.4999 4.2285,0.4999 L24.2305,0.4999 C26.2905,0.4999 27.9595,2.1149 27.9595,4.1069 L27.9595,15.0259 Z M27.9595,25.1959 C27.9595,26.1469 27.1625,26.9169 26.1805,26.9169 L2.2795,26.9169 C1.2975,26.9169 0.5005,26.1469 0.5005,25.1959 L0.5005,22.2629 C0.5005,21.3119 1.2975,20.5419 2.2795,20.5419 L26.1805,20.5419 C27.1625,20.5419 27.9595,21.3119 27.9595,22.2629 L27.9595,25.1959 Z"/>
    </g>
  </g>
</svg>
