<svg xmlns="http://www.w3.org/2000/svg" viewBox="0 0 42 42">
  <g fill="none" fill-rule="evenodd">
    <rect width="42" height="42" fill="none"/>
    <path fill="#66BBE4" d="M17.6850667,17 L24.6356,17 C25.0136,17 25.3206667,17.318 25.3206667,17.709 C25.3206667,18.102 25.0136,18.419 24.6356,18.419 L17.6850667,18.419 C17.3070667,18.419 17,18.102 17,17.709 C17,17.318 17.3070667,17 17.6850667,17 L17.6850667,17 Z M13,22.475 L29.0589333,22.475 L29.0589333,12.456543 L13,12.456543 L13,22.475 Z"/>
    <path fill="#66BBE4" d="M31.6294667,21.692 C31.6294667,23.296 30.3750667,24.596 28.8285333,24.596 L13.8009333,24.596 C12.2544,24.596 11,23.296 11,21.692 L11,12.903 C11,11.3 12.2544,10 13.8009333,10 L28.8285333,10 C30.3750667,10 31.6294667,11.3 31.6294667,12.903 L31.6294667,21.692 Z M31.6294667,30.746 C31.6294667,31.511 31.0302667,32.132 30.2929333,32.132 L12.3365333,32.132 C11.5992,32.132 11,31.511 11,30.746 L11,28.385 C11,27.62 11.5992,27 12.3365333,27 L30.2929333,27 C31.0302667,27 31.6294667,27.62 31.6294667,28.385 L31.6294667,30.746 Z M21.0004837,0 C9.40180114,0 0,9.402 0,21 C0,32.598 9.40180114,42 21.0004837,42 C32.5981989,42 42,32.598 42,21 C42,9.402 32.5981989,0 21.0004837,0 L21.0004837,0 Z"/>
  </g>
</svg>
